<?xml version="1.0" standalone="no"?><!DOCTYPE svg PUBLIC "-//W3C//DTD SVG 1.1//EN" "http://www.w3.org/Graphics/SVG/1.1/DTD/svg11.dtd"><svg t="1686129364427" class="icon" viewBox="0 0 1024 1024" version="1.1" xmlns="http://www.w3.org/2000/svg" p-id="5346" xmlns:xlink="http://www.w3.org/1999/xlink" width="200" height="200"><path d="M896 450.133333c-12.8 0-21.333333 8.533333-21.333333 21.333334v213.333333c0 32-25.6 72.533333-55.466667 89.6l-273.066667 151.466667c-29.866667 17.066667-81.066667 17.066667-110.933333 0L162.133333 774.4C132.266667 757.333333 106.666667 716.8 106.666667 684.8V381.866667c0-32 25.6-72.533333 55.466666-89.6l273.066667-151.466667c29.866667-17.066667 81.066667-17.066667 110.933333 0 10.666667 6.4 23.466667 2.133333 29.866667-8.533333s2.133333-23.466667-8.533333-29.866667c-42.666667-23.466667-110.933333-23.466667-153.6 0L140.8 253.866667C96 277.333333 64 332.8 64 381.866667v302.933333c0 49.066667 32 102.4 76.8 128l273.066667 151.466667c21.333333 12.8 49.066667 17.066667 76.8 17.066666s55.466667-6.4 76.8-17.066666l273.066666-151.466667c44.8-23.466667 76.8-78.933333 76.8-128v-213.333333c0-10.666667-8.533333-21.333333-21.333333-21.333334z m61.866667-224l-42.666667-42.666666c-4.266667-4.266667-10.666667-4.266667-14.933333 0l-42.666667 42.666666c-4.266667 4.266667-4.266667 10.666667 0 14.933334l42.666667 42.666666c2.133333 2.133333 4.266667 2.133333 8.533333 2.133334s6.4 0 8.533333-2.133334l42.666667-42.666666c0-2.133333 0-10.666667-2.133333-14.933334z m-307.2 76.8c2.133333 2.133333 4.266667 2.133333 8.533333 2.133334s6.4-2.133333 8.533333-2.133334l23.466667-23.466666 44.8 44.8-25.6 25.6c-4.266667 4.266667-4.266667 10.666667 0 14.933333l23.466667 23.466667-61.866667 34.133333-177.066667-100.266667c-4.266667-2.133333-6.4-2.133333-10.666666 0l-181.333334 102.4c-4.266667 2.133333-6.4 6.4-6.4 8.533334v202.666666c0 4.266667 2.133333 6.4 6.4 8.533334l181.333334 102.4c2.133333 0 4.266667 2.133333 4.266666 2.133333s4.266667 0 4.266667-2.133333l181.333333-102.4c4.266667-2.133333 6.4-6.4 6.4-8.533334v-196.266666l66.133334-36.266667 21.333333 21.333333c2.133333 2.133333 4.266667 2.133333 8.533333 2.133334s6.4 0 8.533334-2.133334l59.733333-59.733333c4.266667-4.266667 4.266667-10.666667 0-14.933333l-59.733333-59.733334c-4.266667-4.266667-10.666667-4.266667-14.933334 0l-19.2 19.2-46.933333-44.8 23.466667-23.466666c2.133333-2.133333 2.133333-4.266667 2.133333-8.533334 0-2.133333-2.133333-6.4-2.133333-8.533333l-21.333334-21.333333 42.666667-42.666667 23.466667 23.466667c2.133333 2.133333 4.266667 2.133333 8.533333 2.133333s6.4-2.133333 8.533333-2.133333l59.733334-59.733334c4.266667-4.266667 4.266667-10.666667 0-14.933333L789.333333 49.066667c-4.266667-4.266667-10.666667-4.266667-14.933333 0l-64 57.6c-4.266667 4.266667-4.266667 10.666667 0 14.933333l23.466667 23.466667-42.666667 42.666666-23.466667-23.466666c-4.266667-4.266667-10.666667-4.266667-14.933333 0l-59.733333 59.733333c-4.266667 4.266667-4.266667 10.666667 0 14.933333l57.6 64z m-170.666667 413.866667L320 629.333333v-177.066666l160 89.6v174.933333z m10.666667-196.266667l-160-89.6L490.666667 341.333333l160 89.6-160 89.6z m170.666666 108.8l-160 89.6v-177.066666l160-89.6v177.066666z m117.333334-317.866666l44.8 44.8-44.8 44.8-44.8-44.8 44.8-44.8z m0-243.2l44.8 44.8-44.8 44.8L748.8 128l-14.933333-14.933333 44.8-44.8z m-121.6 121.6L704 234.666667l-44.8 44.8-46.933333-44.8 44.8-44.8z" p-id="5347" fill="#409eff"></path></svg>